<?xml version="1.0" standalone="no"?>
<!DOCTYPE svg PUBLIC "-//W3C//DTD SVG 20010904//EN"
 "http://www.w3.org/TR/2001/REC-SVG-20010904/DTD/svg10.dtd">
<svg version="1.0" xmlns="http://www.w3.org/2000/svg"
 width="613.000000pt" height="529.000000pt" viewBox="0 0 613.000000 529.000000"
 preserveAspectRatio="xMidYMid meet">
<metadata>
Created by potrace 1.16, written by Peter Selinger 2001-2019
</metadata>
<g transform="translate(0.000000,529.000000) scale(0.100000,-0.100000)"
fill="#000000" stroke="none">
<path d="M4558 4848 c-16 -5 -28 -14 -28 -18 0 -5 -16 -14 -35 -21 -19 -7 -35
-16 -35 -20 0 -4 -10 -11 -22 -15 -13 -4 -36 -21 -52 -38 -16 -17 -27 -26 -25
-21 3 6 -8 24 -24 40 l-28 30 3 -45 3 -45 -88 -50 c-67 -40 -84 -54 -75 -63
17 -17 23 -16 89 23 33 19 64 35 70 35 5 0 9 -15 9 -33 0 -29 5 -36 45 -55
l45 -22 0 40 c0 22 4 40 9 40 5 0 175 -96 378 -213 202 -117 423 -244 490
-283 l122 -69 1 -588 c0 -450 3 -586 12 -585 7 2 15 -10 19 -27 4 -16 7 -24 8
-17 2 21 38 55 46 43 9 -15 66 -13 88 3 9 7 17 20 17 28 0 19 -48 68 -77 79
l-23 8 -2 552 -3 552 -532 306 c-598 344 -552 305 -431 369 l63 34 535 -310
535 -309 3 -790 2 -791 25 -4 c13 -3 27 -3 30 0 3 3 5 365 5 805 l0 800 -24
21 c-13 11 -27 22 -32 23 -17 3 -329 186 -336 197 -4 6 -8 7 -8 2 0 -4 -10 -2
-23 6 -12 9 -94 57 -182 108 -88 51 -198 115 -245 142 -47 28 -101 59 -120 70
-19 11 -42 26 -50 32 -8 7 -30 18 -47 26 -18 7 -33 15 -33 19 0 11 -42 10 -72
-1z"/>
<path d="M3225 3714 c-11 -17 -13 -30 -7 -36 5 -5 7 -30 5 -56 -5 -43 -4 -45
9 -28 21 27 30 5 12 -28 -21 -41 -18 -55 16 -70 l31 -13 -58 -16 c-69 -19
-151 -66 -117 -67 35 0 47 -47 42 -153 -8 -145 -50 -218 -109 -187 -18 10 -32
5 -97 -33 -77 -44 -77 -45 -74 -83 1 -22 -2 -61 -7 -89 -5 -27 -8 -51 -7 -53
2 -1 46 22 97 52 52 30 95 53 96 52 1 -1 -3 -36 -10 -76 l-13 -75 -92 -54
c-91 -53 -92 -55 -92 -93 0 -21 2 -38 4 -38 17 0 96 55 96 67 0 8 5 24 11 36
l12 21 8 -23 c7 -17 14 -21 29 -16 20 6 20 2 20 -175 l0 -181 -22 6 c-13 4
-25 8 -28 9 -3 0 -7 -3 -9 -9 -7 -15 60 -56 84 -53 11 2 19 8 18 14 -2 11 63
364 73 397 13 41 21 8 33 -125 7 -79 15 -160 18 -181 l6 -38 -39 6 -39 6 33
-30 c21 -20 43 -31 61 -31 l29 0 6 83 c3 45 10 145 14 222 10 150 19 179 83
268 18 25 29 52 29 74 0 23 5 33 15 33 20 0 19 18 -7 122 -23 95 -23 93 17
238 19 68 12 146 -15 160 -10 6 -32 10 -49 10 -37 0 -38 5 -8 50 60 90 57 125
-16 161 -23 12 -49 28 -58 35 -14 13 -18 11 -34 -12z"/>
<path d="M3987 2978 c-35 -12 -32 -38 6 -56 17 -9 27 -21 27 -36 0 -12 7 -31
15 -42 14 -19 14 -18 15 4 0 33 18 27 34 -13 17 -40 38 -45 60 -13 29 42 10
134 -32 157 -25 13 -87 13 -125 -1z"/>
<path d="M3685 2402 c-3 -16 -1 -77 5 -138 5 -60 10 -117 10 -126 0 -9 8 -19
19 -23 22 -7 51 -77 51 -124 0 -22 4 -31 13 -28 8 2 11 23 10 61 -1 47 2 56
14 52 8 -3 17 -6 19 -6 2 0 4 -30 4 -67 1 -48 7 -78 20 -103 l20 -35 -3 170
c-2 94 -7 180 -11 192 -8 22 -6 22 52 -8 44 -23 72 -31 110 -31 58 1 127 28
157 62 l20 22 -52 -7 c-72 -9 -126 2 -160 33 -15 14 -65 39 -111 54 -45 15
-104 39 -131 53 l-50 25 -6 -28z"/>
<path d="M5515 2396 c-30 -16 -58 -21 -116 -21 l-76 1 7 -26 c10 -37 33 -78
70 -129 l32 -44 20 31 c11 17 35 37 54 44 32 11 34 14 34 61 l0 50 75 -7 c46
-4 75 -3 75 3 0 5 3 16 6 25 5 14 -4 16 -58 16 -35 0 -68 4 -73 8 -6 4 -28 -1
-50 -12z"/>
<path d="M2508 1769 c-15 -8 -18 -24 -18 -93 0 -69 25 -305 32 -311 2 -1 18
-5 36 -8 30 -6 32 -5 32 24 0 29 2 31 26 25 15 -4 39 -10 55 -13 22 -4 29 -11
29 -29 0 -17 6 -24 20 -24 19 0 20 7 20 95 l0 95 28 -6 c15 -3 32 -7 39 -9 7
-2 39 5 72 16 42 14 71 32 96 60 41 46 47 75 13 65 -53 -15 -148 -18 -196 -6
-40 9 -61 22 -96 60 -25 26 -47 46 -50 43 -2 -3 -20 0 -38 5 -60 19 -83 21
-100 11z"/>
<path d="M4302 1735 c-16 -12 -27 -13 -41 -5 -11 5 -27 10 -36 10 -10 0 -161
-82 -336 -181 l-319 -181 38 -19 38 -19 318 180 c175 99 323 180 328 180 35 0
-36 -46 -315 -204 -286 -162 -316 -182 -310 -200 4 -12 8 -37 8 -58 0 -33 2
-35 20 -26 56 30 584 334 609 351 25 17 28 25 23 57 -4 33 -1 39 24 54 30 18
37 44 17 64 -16 16 -39 15 -66 -3z"/>
<path d="M2076 1328 l-119 -69 -40 38 c-22 21 -37 32 -33 26 4 -7 3 -13 -3
-13 -5 0 -11 5 -13 11 -2 6 -26 -13 -53 -43 l-50 -53 80 -5 c73 -5 77 -6 42
-14 -21 -5 -52 -5 -70 -2 -20 4 -28 3 -22 -3 6 -5 25 -11 42 -13 26 -2 31 -6
23 -18 -9 -13 -11 -13 -19 -1 -5 8 -16 11 -24 8 -8 -3 -157 -87 -331 -186
-248 -142 -320 -179 -334 -172 -9 5 -44 37 -76 70 -33 33 -63 58 -68 55 -5 -3
-7 0 -6 8 2 7 -3 12 -10 10 -8 -1 -11 2 -8 7 4 5 -6 19 -21 30 -16 11 -34 26
-41 31 -8 8 -12 8 -12 0 0 -6 -5 -8 -10 -5 -6 4 -9 14 -8 23 2 10 -5 17 -17
19 l-20 3 20 -9 c15 -7 16 -10 4 -10 -22 -1 -31 10 -19 24 7 8 -28 49 -119
138 -119 117 -162 150 -147 112 4 -11 -2 -15 -22 -15 -15 0 -34 5 -42 10 -13
9 -13 11 0 20 8 5 27 10 43 10 20 0 27 5 27 20 0 22 -17 26 -40 9 -13 -9 -12
-10 2 -5 10 3 20 0 24 -5 4 -7 -5 -10 -24 -8 -38 4 -62 -16 -62 -51 0 -24 36
-55 321 -270 l321 -243 -66 -35 c-68 -37 -81 -52 -46 -52 12 0 20 -7 20 -16 0
-9 3 -14 8 -12 62 30 110 55 120 66 20 18 31 16 143 -34 289 -128 369 -162
369 -155 0 5 -102 53 -226 108 -124 55 -226 104 -227 109 -1 5 137 89 307 186
248 142 321 189 368 235 53 52 60 56 79 45 18 -11 35 -4 151 62 74 42 126 77
117 80 -52 17 -66 12 -183 -56z"/>
</g>
</svg>
